HIERARCHY
ROOT hip
{
	OFFSET 0.000000 0.000000 0.000000 
	CHANNELS 6 Xposition Yposition Zposition Xrotation Zrotation Yrotation
	JOINT abdomen
	{
		OFFSET 0.000000 3.402643 0.000000 
		CHANNELS 3 Xrotation Zrotation Yrotation
		JOINT chest
		{
			OFFSET 0.000000 8.438565 -0.680529 
			CHANNELS 3 Xrotation Zrotation Yrotation
			JOINT neck
			{
				OFFSET 0.000000 10.207942 -0.272212 
				CHANNELS 3 Xrotation Zrotation Yrotation
				JOINT head
				{
					OFFSET 0.000000 3.130431 0.000000 
					CHANNELS 3 Xrotation Zrotation Yrotation
					End Site
					{
						OFFSET 0.000000 3.130435 0.000000 
					}
				}
			}
			JOINT lCollar
			{
				OFFSET 3.470700 6.669187 -0.816635 
				CHANNELS 3 Yrotation Zrotation Xrotation
				JOINT lShldr
				{
					OFFSET 3.198488 0.000000 0.000000 
					CHANNELS 3 Zrotation Yrotation Xrotation
					JOINT lForeArm
					{
						OFFSET 10.139888 0.000000 0.000000 
						CHANNELS 3 Yrotation Zrotation Xrotation
						JOINT lHand
						{
							OFFSET 8.370511 0.000000 0.000000 
							CHANNELS 3 Zrotation Yrotation Xrotation
							End Site
							{
								OFFSET 4.083176 0.000000 0.000000 
							}
						}
					}
				}
			}
			JOINT rCollar
			{
				OFFSET -3.470700 6.669187 -0.816635 
				CHANNELS 3 Yrotation Zrotation Xrotation
				JOINT rShldr
				{
					OFFSET -3.198488 0.000000 0.000000 
					CHANNELS 3 Zrotation Yrotation Xrotation
					JOINT rForeArm
					{
						OFFSET -10.139888 0.000000 0.000000 
						CHANNELS 3 Yrotation Zrotation Xrotation
						JOINT rHand
						{
							OFFSET -8.370511 0.000000 0.000000 
							CHANNELS 3 Zrotation Yrotation Xrotation
							End Site
							{
								OFFSET -4.083176 0.000000 0.000000 
							}
						}
					}
				}
			}
		}
	}
	JOINT lThigh
	{
		OFFSET 5.308129 -1.633274 1.361059 
		CHANNELS 3 Xrotation Zrotation Yrotation
		JOINT lShin
		{
			OFFSET -2.041588 -20.007561 0.000000 
			CHANNELS 3 Xrotation Zrotation Yrotation
			JOINT lFoot
			{
				OFFSET 0.000000 -19.190928 -1.224953 
				CHANNELS 3 Xrotation Yrotation Zrotation
				End Site
				{
					OFFSET 0.000000 -2.449906 4.627600 
				}
			}
		}
	}
	JOINT rThigh
	{
		OFFSET -5.308129 -1.633274 1.361059 
		CHANNELS 3 Xrotation Zrotation Yrotation
		JOINT rShin
		{
			OFFSET 2.041588 -20.007561 0.000000 
			CHANNELS 3 Xrotation Zrotation Yrotation
			JOINT rFoot
			{
				OFFSET 0.000000 -19.190928 -1.224953 
				CHANNELS 3 Xrotation Yrotation Zrotation
				End Site
				{
					OFFSET 0.000000 -2.449906 4.627600 
				}
			}
		}
	}
}
MOTION
Frames: 8
Frame Time: 0.016667
0.054843 52.650185 -5.255286 -7.223702 -0.604385 3.427852 30.649811 0.129969 -0.735465 -0.047475 2.498503 -3.058161 -12.190099 -2.526275 0.471338 9.291068 0.068112 -4.873044 -9.543101 -10.691234 -0.556160 -54.049213 2.886332 -6.436605 -32.758118 -5.000000 28.849060 -25.701519 -7.605886 23.468924 8.221280 9.257660 -0.480404 59.806011 3.193444 0.468593 27.340178 5.000000 32.896320 17.392227 -16.081640 6.133314 12.156248 18.289387 8.433135 1.950269 -7.449557 -0.583014 -4.377019 4.404449 -9.577188 13.614015 -8.737421 -19.028767 3.840090 1.771126 0.124833 -4.531479 -5.194596 8.805916 
0.150128 52.650185 -5.198292 -7.379970 -0.516902 2.929744 30.630991 0.083831 -0.700522 -0.084009 2.449733 -3.019123 -12.034784 -2.691880 0.486519 9.335938 0.000000 -4.609376 -9.564489 -10.876525 -0.565724 -53.715614 3.000008 -6.473201 -32.558220 -5.000000 28.829023 -25.751162 -7.570474 23.721910 8.368097 9.296667 -0.482420 59.684910 2.981635 0.268737 27.812363 5.000000 32.812012 18.198540 -15.635900 5.868813 12.460410 18.007299 8.739738 2.242550 -7.437987 -0.613144 -4.500732 4.564205 -9.530486 13.760259 -8.971289 -18.729347 3.711804 1.653201 0.096783 -4.458074 -5.072554 8.827371 
0.228597 52.649334 -5.138114 -7.539397 -0.458554 2.480546 30.601990 0.057238 -0.659207 -0.111143 2.410721 -2.980081 -11.899154 -2.817400 0.505502 9.430547 -0.087633 -4.384776 -9.548425 -11.030939 -0.583226 -53.440331 3.107569 -6.511872 -32.382694 -5.000000 28.720310 -25.684217 -7.510218 23.762646 8.485620 9.335676 -0.484436 59.630463 2.848051 0.151898 28.106955 5.000000 32.805679 18.820234 -15.350968 5.922477 12.798559 17.779358 8.999607 2.417185 -7.444520 -0.621503 -4.660827 4.719402 -9.441487 13.968252 -9.158251 -18.471790 3.537182 1.565857 0.076695 -4.382824 -4.925165 8.901620 
0.295850 52.647926 -5.075807 -7.691304 -0.429407 2.070328 30.592447 0.061906 -0.615636 -0.138379 2.361935 -2.950795 -11.783008 -2.933264 0.523022 9.553798 -0.175316 -4.169962 -9.501135 -11.177228 -0.590765 -53.204624 3.216946 -6.559659 -32.220592 -5.000000 28.549059 -25.555796 -7.441908 23.660261 8.593379 9.374685 -0.486452 59.603256 2.773810 0.080667 28.270550 5.000000 32.865124 19.302525 -15.168159 6.202414 13.133298 17.606152 9.236556 2.543365 -7.433388 -0.663768 -4.839927 4.862138 -9.347136 14.194535 -9.305312 -18.276966 3.338593 1.529994 0.085377 -4.259597 -4.761037 9.035523 
0.355489 52.646240 -5.013492 -7.844124 -0.409978 1.689480 30.553715 0.047514 -0.579158 -0.155726 2.332695 -2.911360 -11.675971 -3.031281 0.527979 9.676479 -0.263038 -3.974657 -9.463318 -11.294261 -0.598706 -52.998116 3.323404 -6.608351 -32.067211 -5.000000 28.353203 -25.399294 -7.360509 23.506565 8.691373 9.413695 -0.488467 59.576107 2.699497 0.009515 28.407301 5.000000 32.930389 19.715059 -15.045163 6.551542 13.453281 17.448406 9.475558 2.652277 -7.457445 -0.684626 -4.996396 5.004700 -9.262968 14.419048 -9.421904 -18.126381 3.143903 1.461266 0.094241 -4.179278 -4.642494 9.108115 
0.384665 52.643417 -4.951137 -7.949999 -0.429558 1.406284 30.476034 0.016469 -0.558142 -0.153167 2.352319 -2.862594 -11.588258 -3.050591 0.530898 9.785435 -0.292298 -3.877052 -9.453971 -11.333271 -0.600722 -52.920177 3.440925 -6.681385 -31.966429 -5.000000 28.050028 -25.171230 -7.231704 23.176224 8.740711 9.472208 -0.493098 59.588825 2.631460 -0.029543 28.464031 5.000000 32.982231 19.773104 -15.182732 7.174443 13.772422 17.357883 9.757046 2.640080 -7.441133 -0.703095 -5.173350 5.098344 -9.188524 14.614069 -9.461664 -18.089226 2.975197 1.431018 0.065968 -4.166001 -4.420184 9.137641 
0.413835 52.640602 -4.888783 -8.065522 -0.449131 1.132778 30.417797 -0.032548 -0.544970 -0.150959 2.371930 -2.823588 -11.500029 -3.071366 0.524176 9.884523 -0.321565 -3.779402 -9.444625 -11.372280 -0.602737 -52.842175 3.550886 -6.759995 -31.863235 -5.000000 27.748676 -24.935770 -7.104589 22.845234 8.790138 9.540474 -0.496635 59.600811 2.571856 -0.073076 28.520632 5.000000 33.033890 19.828136 -15.326752 7.805847 14.080175 17.283594 10.028178 2.652072 -7.447331 -0.723566 -5.296960 5.125153 -9.142889 14.802916 -9.492235 -18.049721 2.806865 1.398542 0.037777 -4.167397 -4.233771 9.184127 
0.423642 52.641167 -4.831330 -8.152035 -0.449156 0.957002 30.349159 -0.101043 -0.532666 -0.160125 2.352407 -2.784527 -11.460615 -3.032744 0.518337 9.980148 -0.292338 -3.759817 -9.462218 -11.373883 -0.591367 -52.733700 3.652790 -6.820296 -31.816223 -5.000000 27.442507 -24.682158 -7.148118 22.469578 8.773287 9.656012 -0.512213 59.612812 2.512265 -0.117074 28.490309 5.000000 33.092403 19.705257 -15.494268 8.209484 14.331130 17.213507 10.207003 2.614095 -7.440023 -0.709744 -5.337438 5.129218 -9.172643 14.952640 -9.557537 -18.017748 2.746125 1.408831 0.064134 -4.183466 -4.108340 9.246941 
